<?xml version="1.0" standalone="no"?>
<!DOCTYPE svg PUBLIC "-//W3C//DTD SVG 20010904//EN"
 "http://www.w3.org/TR/2001/REC-SVG-20010904/DTD/svg10.dtd">
<svg version="1.0" xmlns="http://www.w3.org/2000/svg"
 width="843.000000pt" height="843.000000pt" viewBox="0 0 843.000000 843.000000"
 preserveAspectRatio="xMidYMid meet">
<metadata>
Created by potrace 1.14, written by Peter Selinger 2001-2017
</metadata>
<g transform="translate(0.000000,843.000000) scale(0.100000,-0.100000)"
fill="#000000" stroke="none">
<path d="M4139 7085 c-3 -2 -20 -6 -38 -7 -18 -1 -36 -8 -38 -15 -3 -7 -8 -11
-13 -8 -9 5 -71 -55 -70 -70 1 -21 -1 -26 -8 -21 -4 2 -7 -19 -6 -47 1 -29 2
-52 4 -52 1 0 3 -8 5 -18 2 -10 11 -27 19 -36 9 -10 13 -21 9 -26 -5 -4 -2 -5
5 -1 6 4 12 2 12 -3 0 -6 7 -11 15 -11 8 0 15 -4 15 -9 0 -24 146 -37 154 -14
3 7 12 13 19 13 8 0 26 11 41 25 15 14 24 25 20 25 -5 0 -3 5 4 12 7 7 12 20
12 31 0 10 3 16 8 13 12 -7 6 83 -8 99 -7 8 -10 15 -6 15 4 0 0 10 -9 23 -8
13 -12 27 -8 31 5 4 4 7 -2 5 -15 -4 -65 23 -65 34 0 6 -3 7 -6 4 -4 -3 -16
-2 -27 4 -15 9 -18 8 -11 -3 6 -10 5 -11 -8 -1 -8 7 -17 11 -19 8z"/>
<path d="M3833 6270 c-29 -9 -53 -15 -53 -12 0 3 -8 -5 -19 -16 -10 -12 -22
-22 -25 -22 -16 0 -88 -95 -79 -104 4 -3 1 -6 -4 -6 -6 0 -10 -8 -8 -17 1 -10
-1 -22 -5 -28 -9 -13 -7 -121 3 -131 4 -4 7 -16 7 -26 0 -10 5 -18 10 -18 6 0
10 -5 10 -10 0 -18 45 -80 58 -80 7 0 15 -7 18 -15 4 -8 10 -12 15 -9 5 3 9 1
9 -4 0 -5 24 -16 53 -25 55 -17 169 -15 175 2 2 6 10 7 18 4 8 -3 14 0 14 6 0
6 6 11 13 11 7 0 32 18 56 40 23 22 40 40 36 40 -3 0 3 13 14 29 12 16 21 37
21 46 0 9 5 25 10 36 8 14 7 19 -2 19 -8 0 -9 3 -3 8 12 8 15 52 4 52 -4 0 -6
8 -4 18 1 10 -5 34 -15 55 -10 20 -16 37 -14 37 2 0 -15 20 -38 44 -24 24 -45
43 -47 41 -2 -2 -10 2 -18 10 -8 8 -23 15 -34 15 -10 0 -19 4 -19 8 0 4 -10 8
-22 9 -13 1 -33 3 -45 6 -14 4 -23 1 -23 -6 0 -9 -2 -9 -8 -1 -5 8 -22 6 -59
-6z"/>
<path d="M2364 6041 c-11 -9 -18 -24 -16 -33 2 -10 -1 -18 -7 -18 -6 0 -11
-12 -11 -26 0 -14 -4 -23 -8 -20 -4 2 -9 -7 -10 -21 -1 -13 -5 -30 -9 -36 -4
-7 -8 -16 -10 -22 -1 -5 -7 -26 -14 -45 -18 -53 -22 -64 -25 -78 -1 -8 -6 -21
-10 -30 -6 -16 -12 -41 -16 -69 -1 -7 -6 -13 -12 -13 -6 0 -5 -4 3 -9 9 -6 10
-11 2 -15 -6 -4 -11 -17 -11 -30 0 -12 -5 -27 -12 -34 -9 -9 -9 -12 1 -12 7 0
9 -4 6 -10 -15 -24 -30 -127 -38 -260 -2 -25 -6 -51 -10 -57 -4 -6 -3 -14 2
-17 11 -7 9 -25 -3 -45 -6 -9 -5 -12 1 -8 7 4 10 -11 9 -43 -2 -28 1 -50 6
-50 4 0 8 -5 8 -11 0 -5 -5 -7 -12 -3 -7 5 -8 3 -3 -6 4 -7 9 -23 11 -34 8
-70 20 -141 24 -141 4 0 12 -43 13 -72 1 -17 7 -31 12 -30 6 1 9 -6 7 -15 -1
-9 2 -19 8 -23 5 -3 10 -15 10 -26 0 -10 4 -19 8 -19 5 0 9 -6 9 -12 1 -18 7
-42 13 -48 3 -3 21 -35 40 -72 19 -38 38 -68 43 -68 4 0 5 -4 2 -10 -3 -5 -1
-10 4 -10 6 0 11 -6 11 -13 0 -7 11 -24 25 -39 14 -15 25 -30 25 -32 0 -6 14
-23 62 -79 15 -18 28 -39 28 -47 0 -13 1 -13 10 0 8 12 10 12 10 -5 0 -11 16
-31 35 -45 19 -14 37 -32 40 -41 3 -9 16 -22 30 -29 13 -7 22 -17 19 -22 -3
-4 2 -8 10 -8 9 0 16 -6 16 -14 0 -7 13 -19 30 -26 16 -7 27 -16 24 -21 -3 -5
3 -12 13 -16 10 -4 23 -12 28 -19 6 -7 51 -42 100 -78 50 -36 95 -70 102 -76
7 -5 17 -10 23 -10 5 0 10 -4 10 -10 0 -5 5 -10 11 -10 6 0 30 -14 55 -30 24
-17 44 -27 44 -23 0 4 4 4 8 -2 4 -5 14 -15 22 -22 13 -9 15 -6 18 23 1 26 -1
33 -10 28 -10 -6 -10 -5 -1 7 6 8 9 20 5 27 -9 13 -6 241 3 292 3 19 7 53 8
75 1 22 8 46 14 53 10 10 10 19 2 34 -6 12 -7 18 -1 14 5 -3 12 7 15 22 10 51
13 61 19 68 4 3 4 12 2 19 -3 7 -1 16 5 19 6 4 8 13 4 21 -3 8 0 15 7 15 6 0
9 4 5 9 -3 5 -1 12 4 16 5 3 8 14 6 25 -2 11 1 20 6 20 6 0 9 6 6 13 -2 6 2
29 9 51 8 21 12 42 9 46 -3 5 -1 11 4 14 4 3 9 16 10 28 2 34 8 93 11 93 0 0
3 15 4 33 2 18 -1 32 -7 32 -6 0 -2 7 9 16 10 8 14 13 7 10 -6 -4 -14 -2 -18
4 -3 5 -2 10 3 10 5 0 9 7 9 15 0 8 -5 15 -10 15 -5 0 -4 7 3 15 7 8 8 15 3
15 -5 0 -9 23 -9 50 1 28 -2 50 -6 50 -4 0 -5 9 -3 20 2 11 1 20 -4 20 -4 0
-8 17 -9 37 -2 21 -6 40 -10 43 -4 3 -7 12 -7 20 0 8 -3 17 -7 20 -4 3 -9 15
-11 25 -4 28 -31 85 -39 85 -4 0 -5 7 -2 15 4 8 2 15 -3 15 -5 0 -17 19 -28
43 -10 23 -21 44 -25 47 -3 3 -22 28 -41 55 -18 28 -37 52 -42 53 -4 2 -4 9
-1 14 5 7 2 8 -5 4 -8 -5 -14 0 -18 13 -3 11 -9 18 -14 15 -5 -3 -9 0 -9 6 0
13 -102 116 -112 112 -5 -1 -8 5 -8 15 0 9 -3 13 -7 10 -3 -4 -18 6 -33 21
-15 16 -34 32 -44 35 -9 4 -16 10 -16 15 0 5 -16 17 -35 28 -19 10 -35 22 -35
26 0 5 -6 8 -14 8 -8 0 -16 4 -18 8 -4 12 -95 72 -107 72 -6 0 -11 4 -11 9 0
4 -22 19 -49 32 -27 13 -47 27 -45 31 3 4 -1 5 -9 2 -8 -3 -17 2 -21 11 -3 9
-10 13 -16 10 -6 -3 -17 0 -25 7 -39 35 -41 36 -61 19z"/>
<path d="M5099 5983 c-1 -5 -1 -11 0 -15 0 -5 -4 -8 -10 -8 -6 0 -9 -9 -6 -20
3 -11 1 -20 -4 -20 -5 0 -9 -6 -9 -14 0 -7 -7 -27 -15 -42 -8 -16 -15 -37 -15
-46 0 -10 -5 -18 -11 -18 -6 0 -9 -7 -5 -15 3 -9 0 -15 -10 -15 -8 0 -13 -4
-10 -9 6 -10 -20 -65 -41 -89 -7 -7 -13 -21 -13 -30 0 -10 -9 -23 -20 -30 -12
-7 -18 -17 -15 -22 3 -6 3 -10 -2 -10 -4 -1 -24 -25 -43 -55 -19 -30 -39 -55
-43 -55 -5 0 -5 -5 -2 -10 3 -6 -1 -13 -9 -16 -9 -3 -16 -13 -16 -21 0 -8 -4
-12 -9 -9 -4 3 -13 -6 -19 -19 -7 -14 -16 -25 -22 -25 -6 0 -9 -4 -6 -8 3 -5
-4 -14 -14 -22 -10 -8 -17 -17 -14 -22 3 -4 -2 -8 -10 -8 -9 0 -16 -7 -16 -15
0 -7 -8 -19 -17 -24 -10 -6 -14 -11 -10 -11 4 0 -4 -11 -18 -25 -14 -14 -25
-32 -25 -40 0 -8 -4 -14 -9 -12 -5 1 -9 -2 -9 -7 0 -5 -7 -13 -16 -18 -9 -5
-16 -15 -16 -22 0 -8 -7 -16 -15 -20 -8 -3 -15 -10 -15 -17 0 -6 -9 -24 -21
-40 -11 -16 -17 -29 -12 -29 4 0 1 -6 -8 -13 -9 -7 -17 -16 -19 -22 -3 -12
-18 -55 -27 -75 -3 -8 -5 -18 -5 -22 1 -5 -3 -8 -10 -8 -6 0 -9 -3 -5 -6 3 -4
0 -22 -8 -40 -8 -19 -11 -34 -8 -34 3 0 0 -6 -6 -13 -6 -8 -8 -17 -4 -20 3 -4
2 -7 -3 -7 -5 0 -10 -8 -11 -17 -4 -50 -7 -69 -16 -80 -6 -9 -5 -13 4 -13 9 0
10 -3 4 -8 -11 -8 -13 -29 -14 -137 -2 -105 1 -169 7 -180 3 -5 8 -28 10 -50
2 -22 9 -43 15 -47 8 -5 7 -8 -3 -8 -10 0 -11 -3 -4 -8 7 -4 14 -18 15 -32 2
-14 7 -28 11 -31 5 -3 9 -17 10 -32 1 -15 5 -27 9 -27 5 0 18 -34 18 -48 1 -5
53 -97 62 -108 5 -6 6 -14 2 -17 -3 -4 -1 -7 6 -7 7 0 10 -4 7 -9 -4 -5 -3
-11 2 -13 4 -1 28 -32 54 -68 26 -36 63 -83 83 -105 19 -22 35 -43 35 -47 0
-4 9 -10 20 -13 11 -3 20 -13 20 -21 0 -8 4 -14 10 -14 5 0 20 -11 33 -24 14
-14 28 -22 31 -19 3 4 6 -1 6 -11 0 -9 5 -14 10 -11 6 3 10 2 10 -4 0 -6 8
-15 19 -20 14 -8 31 -3 75 24 31 18 56 32 56 29 0 -2 8 4 18 14 31 29 72 62
72 58 0 -3 26 21 58 52 31 31 56 60 54 64 -1 5 6 8 15 8 9 0 14 3 10 6 -3 3 6
17 20 30 14 13 22 24 18 24 -5 0 0 7 11 15 10 8 15 15 11 15 -4 0 3 11 17 23
14 13 23 26 21 29 -3 3 1 11 10 18 8 7 15 18 15 25 0 7 7 18 15 25 9 7 13 15
11 18 -3 2 9 25 26 50 17 25 25 42 19 37 -7 -4 -5 4 4 19 10 14 13 26 9 26 -5
0 -3 4 5 9 7 5 14 20 14 35 0 14 3 23 8 20 5 -3 9 -2 10 3 2 23 10 53 20 79 7
16 12 39 12 52 0 12 3 22 8 22 5 0 6 7 3 15 -4 8 -2 15 4 15 6 0 9 11 7 25 -1
14 1 25 4 25 3 0 7 12 8 28 1 15 5 45 8 67 4 22 6 52 5 68 0 15 5 27 12 27 9
0 9 3 1 11 -8 8 -8 20 -3 35 6 14 6 26 0 29 -6 3 -6 15 0 29 5 15 5 27 -3 35
-8 8 -8 11 2 11 7 0 9 5 5 12 -5 7 -8 22 -8 33 0 11 3 26 8 33 4 6 3 12 -1 12
-5 0 -10 11 -11 26 -1 17 2 23 11 19 6 -4 5 -1 -3 7 -9 8 -15 31 -15 58 0 25
-3 47 -7 50 -3 3 -7 23 -9 45 -1 22 -6 45 -10 50 -5 6 -9 27 -11 47 -1 20 -6
34 -10 32 -4 -3 -8 6 -8 20 0 35 1 32 -15 63 -8 14 -12 30 -9 35 3 4 0 8 -6 8
-7 0 -10 6 -7 13 2 6 -1 23 -8 37 -7 14 -17 36 -23 50 -5 14 -17 41 -25 60 -9
19 -17 40 -18 45 -1 6 -9 16 -16 23 -7 8 -11 18 -8 23 4 5 1 9 -5 9 -6 0 -8 5
-5 10 3 6 1 10 -6 10 -7 0 -10 3 -6 6 3 4 -1 13 -9 21 -8 8 -12 19 -9 24 4 5
1 9 -5 9 -6 0 -9 4 -6 9 3 5 -1 12 -10 15 -8 3 -12 10 -9 16 3 5 1 10 -4 10
-6 0 -11 7 -11 15 0 8 -5 15 -11 15 -5 0 -8 4 -5 9 3 4 -3 19 -14 31 -11 12
-22 31 -25 41 -4 11 -10 19 -14 19 -5 0 -14 14 -21 30 -7 17 -15 30 -19 30 -4
0 -15 16 -25 35 -18 33 -34 45 -37 28z"/>
<path d="M5860 5952 c0 -6 -15 -25 -32 -44 -40 -41 -63 -70 -66 -83 -2 -5 -10
-14 -18 -18 -8 -4 -14 -14 -14 -21 0 -8 -7 -19 -15 -26 -8 -7 -15 -20 -15 -30
0 -10 -7 -23 -15 -30 -8 -7 -15 -21 -15 -30 0 -10 -6 -21 -12 -23 -10 -4 -10
-6 0 -6 10 -1 10 -6 1 -23 -6 -12 -12 -52 -12 -90 0 -46 -3 -65 -11 -61 -6 4
-5 -1 3 -10 7 -10 15 -37 17 -61 1 -25 7 -53 12 -63 5 -10 8 -26 7 -35 -2 -10
1 -18 7 -18 6 0 8 -7 5 -15 -4 -8 -2 -17 4 -20 5 -4 7 -11 4 -16 -4 -5 5 -9
19 -9 14 0 26 5 26 11 0 5 5 7 10 4 6 -3 10 -1 10 5 0 6 4 9 8 6 5 -3 23 8 41
24 18 17 34 30 37 30 2 0 23 18 45 40 23 22 38 40 33 40 -4 0 1 7 12 15 10 8
15 15 11 15 -5 0 -1 7 7 16 9 8 16 25 16 36 0 12 5 18 13 15 8 -3 12 7 13 32
1 20 5 49 8 65 5 19 3 32 -6 37 -10 7 -10 9 1 9 11 0 11 3 0 17 -12 15 -12 16
1 8 12 -7 13 -6 5 6 -6 8 -12 28 -14 44 -2 17 -6 32 -10 35 -3 3 -8 16 -9 30
-2 14 -8 29 -13 35 -5 5 -9 17 -9 27 0 10 -4 18 -8 18 -4 0 -13 12 -19 28 -21
46 -63 103 -63 84z"/>
<path d="M3674 5410 c-3 -3 -10 -6 -15 -6 -5 -1 -11 -3 -14 -4 -3 -1 -8 -3
-12 -5 -18 -5 -48 -19 -53 -25 -3 -3 -19 -16 -37 -28 -17 -12 -35 -31 -38 -42
-4 -11 -11 -18 -16 -15 -5 4 -9 -1 -9 -9 0 -9 -5 -16 -11 -16 -5 0 -8 -4 -5
-8 3 -5 -4 -21 -14 -37 -14 -21 -16 -33 -8 -42 7 -9 7 -13 -1 -13 -7 0 -9 -4
-6 -10 3 -5 2 -10 -2 -10 -7 0 -7 -35 -1 -110 0 -8 5 -21 11 -27 5 -7 7 -13 3
-13 -3 0 5 -22 19 -50 14 -27 30 -50 36 -50 5 0 7 -5 4 -11 -4 -6 2 -13 14
-16 11 -3 18 -9 15 -14 -3 -5 -1 -9 4 -9 4 0 18 -9 30 -20 12 -12 22 -18 22
-15 0 3 11 -2 25 -11 14 -9 25 -13 25 -10 0 4 12 1 28 -7 29 -14 118 -16 167
-3 51 13 85 28 85 37 0 5 7 9 15 9 9 0 18 7 21 15 4 8 9 13 14 10 22 -13 98
120 105 183 1 18 6 36 9 39 3 3 0 13 -7 21 -10 13 -9 15 6 9 16 -6 16 -5 0 20
-10 15 -13 24 -7 20 17 -10 -22 99 -48 136 -36 52 -107 113 -125 109 -7 -2
-13 1 -13 6 0 21 -197 42 -216 22z"/>
<path d="M1572 5392 c-12 -8 -20 -38 -21 -80 -1 -13 -5 -21 -10 -18 -4 3 -8
-26 -7 -64 1 -39 -2 -70 -7 -70 -6 0 -5 -5 0 -12 6 -7 9 -23 8 -35 -1 -13 1
-23 4 -23 4 0 8 -10 9 -23 2 -32 44 -104 88 -152 20 -22 33 -33 29 -25 -3 8 2
5 13 -7 11 -13 24 -23 29 -23 5 0 18 -8 29 -18 10 -10 22 -19 27 -20 43 -10
58 -16 67 -27 5 -7 21 -11 35 -9 14 1 25 -2 25 -8 0 -6 7 -8 15 -5 8 4 17 2
20 -3 5 -8 50 -4 67 7 5 3 2 13 -7 23 -11 12 -13 20 -5 25 5 3 8 10 5 14 -2 5
-7 29 -9 55 -3 26 -9 52 -13 59 -4 7 -6 20 -5 30 2 10 -2 25 -8 33 -10 11 -10
14 1 14 10 0 11 2 2 8 -6 4 -19 27 -29 52 -10 25 -25 51 -33 58 -13 11 -13 12
-1 6 14 -7 -20 33 -76 89 -31 31 -84 71 -105 79 -11 4 -19 12 -19 18 0 6 -4 9
-9 5 -5 -3 -16 2 -25 10 -8 9 -18 16 -21 16 -10 -1 -40 13 -45 20 -3 4 -11 5
-18 1z"/>
<path d="M6430 5390 c-8 -5 -18 -6 -22 -4 -5 3 -11 -1 -14 -10 -3 -8 -12 -12
-20 -9 -8 3 -14 0 -14 -6 0 -6 -6 -8 -14 -5 -7 3 -20 -2 -29 -10 -8 -8 -17
-12 -21 -9 -3 4 -6 1 -6 -5 0 -7 -7 -12 -15 -12 -8 0 -24 -10 -36 -22 -12 -13
-18 -17 -14 -9 4 7 -20 -5 -54 -28 -33 -23 -61 -46 -61 -52 0 -6 -4 -8 -9 -5
-5 4 -11 2 -13 -3 -1 -4 -24 -27 -51 -49 -26 -23 -47 -44 -47 -47 1 -4 -10
-17 -24 -30 -13 -12 -22 -26 -19 -29 4 -3 1 -6 -5 -6 -11 0 -83 -100 -95 -132
-3 -10 -11 -18 -17 -18 -6 0 -9 -4 -5 -9 3 -5 1 -12 -5 -16 -6 -4 -8 -11 -5
-16 4 -5 2 -9 -4 -9 -6 0 -15 -18 -21 -40 -6 -22 -14 -39 -18 -36 -4 2 -8 -3
-9 -12 -3 -34 -8 -57 -14 -62 -8 -6 -30 -94 -33 -131 -2 -14 -5 -30 -8 -35 -3
-5 -4 -17 -3 -26 2 -10 0 -18 -3 -18 -4 0 -7 -23 -8 -50 -1 -47 5 -57 31 -50
6 2 18 2 28 2 9 0 15 3 13 7 -3 4 13 7 35 6 21 -1 39 2 39 5 0 6 94 32 123 33
9 1 17 7 17 15 0 7 4 11 9 8 5 -4 22 -1 38 6 15 6 31 11 36 10 4 -1 7 2 7 7 0
5 14 12 30 16 17 4 36 13 44 20 8 8 20 16 27 17 8 2 22 12 32 22 9 10 17 16
17 12 0 -9 18 6 90 77 33 32 60 62 60 67 0 5 6 13 13 17 13 9 57 94 57 112 0
6 6 11 13 11 8 0 7 4 -3 10 -8 5 -10 10 -4 10 6 0 11 6 12 13 0 6 4 28 8 47 4
19 8 67 8 105 1 39 5 73 11 77 7 5 6 8 0 8 -6 0 -11 9 -12 20 -1 12 3 18 9 14
6 -4 6 1 -1 14 -6 11 -9 34 -7 51 2 17 -1 31 -7 31 -5 0 -4 6 2 14 8 9 8 16 2
20 -6 4 -7 14 -4 23 5 11 3 14 -6 8 -10 -6 -11 -3 -3 11 13 27 -8 76 -28 64z"/>
<path d="M6865 4792 c-5 -11 -9 -13 -12 -5 -3 9 -10 10 -21 4 -9 -5 -25 -7
-34 -6 -10 2 -18 -1 -18 -6 0 -6 -5 -7 -10 -4 -6 4 -18 1 -27 -7 -9 -7 -17
-11 -17 -8 -2 7 -96 -34 -96 -42 0 -5 -7 -8 -15 -8 -8 0 -15 -4 -15 -10 0 -5
-7 -10 -15 -10 -8 0 -15 -3 -15 -7 0 -5 -14 -17 -30 -28 -17 -11 -33 -28 -36
-38 -3 -9 -10 -15 -15 -12 -5 4 -9 1 -9 -5 0 -10 -8 -21 -37 -55 -7 -7 -13
-17 -13 -20 0 -4 -9 -19 -20 -35 -11 -15 -17 -30 -13 -34 3 -3 1 -6 -5 -6 -6
0 -9 -6 -6 -14 3 -8 0 -17 -5 -21 -6 -3 -9 -11 -5 -16 3 -5 10 -6 16 -3 6 4
13 2 17 -4 4 -7 17 -13 29 -15 12 -2 25 -6 28 -10 4 -4 17 -7 29 -7 11 0 27
-6 34 -12 11 -11 12 -10 6 2 -8 13 -6 13 8 2 9 -8 29 -12 44 -11 15 2 33 1 38
-3 6 -3 19 -4 30 -2 11 2 41 4 68 5 26 1 47 6 47 12 0 5 6 7 14 4 7 -3 24 0
37 7 13 7 29 14 34 15 36 12 55 22 55 31 0 5 8 10 18 10 9 0 26 11 36 25 10
13 24 22 30 18 6 -3 8 -3 4 1 -3 4 7 22 23 38 16 17 29 37 29 44 0 8 4 14 9
14 9 0 46 79 43 93 -1 4 3 7 9 7 6 0 9 7 5 15 -3 8 -2 15 3 15 4 0 8 6 9 13 0
6 3 22 6 34 3 16 -1 26 -14 33 -25 13 -33 13 -25 -2 4 -7 1 -6 -7 2 -7 9 -30
15 -53 15 -22 0 -44 3 -50 6 -5 4 -28 7 -51 6 -22 0 -45 2 -51 6 -6 4 -14 -1
-18 -11z"/>
<path d="M1550 4572 c0 -4 -30 -8 -66 -8 -45 -1 -69 -5 -75 -15 -6 -9 -9 -10
-9 -2 0 7 -9 10 -22 6 -13 -3 -35 -5 -49 -5 -22 0 -25 -4 -21 -29 2 -16 8 -32
13 -35 5 -3 9 -15 9 -28 0 -12 3 -26 8 -30 4 -4 7 -11 7 -14 0 -13 69 -147 77
-150 4 -2 8 -10 8 -17 0 -8 7 -18 16 -23 9 -5 15 -12 14 -16 -2 -13 37 -55 45
-48 5 4 5 2 1 -5 -4 -7 4 -22 20 -35 15 -13 34 -31 43 -41 9 -10 33 -28 54
-39 20 -12 37 -25 37 -30 0 -4 3 -7 8 -6 4 1 17 -3 30 -10 12 -7 22 -9 22 -5
0 4 4 4 8 -2 10 -15 103 -45 95 -31 -5 8 -3 8 8 0 17 -13 28 -15 134 -15 99
-1 165 4 165 13 0 3 11 5 25 3 14 -1 25 1 25 5 0 5 8 7 18 6 9 -2 35 3 57 11
21 7 45 11 52 9 7 -3 12 -1 10 3 -1 5 1 8 4 8 3 -1 14 5 24 13 14 11 17 11 11
1 -5 -7 12 -1 38 14 25 15 46 23 46 18 0 -4 5 0 11 9 7 13 5 24 -8 43 -10 13
-21 25 -25 25 -5 0 -8 4 -8 10 0 5 -12 23 -27 40 -16 17 -40 45 -55 62 -16 16
-28 34 -28 39 0 5 -6 9 -12 9 -7 0 -22 14 -33 30 -11 16 -24 30 -28 30 -5 0
-21 12 -35 28 -15 15 -39 33 -54 41 -16 8 -28 18 -28 21 0 4 -13 13 -30 20
-16 7 -30 17 -30 22 0 5 -4 6 -10 3 -5 -3 -10 -1 -10 4 0 6 -4 11 -9 11 -5 0
-22 5 -38 12 -15 6 -31 12 -35 13 -5 2 -10 4 -13 5 -3 1 -8 3 -12 4 -5 1 -18
5 -31 10 -12 4 -34 9 -50 11 -15 2 -27 4 -27 5 0 3 -43 10 -87 14 -26 2 -52 8
-59 12 -8 4 -9 3 -5 -4 4 -7 3 -12 -3 -12 -5 0 -13 5 -16 10 -4 6 -13 7 -23 1
-21 -11 -33 -11 -54 0 -10 5 -18 6 -18 1z"/>
<path d="M3797 4504 c-2 -3 -14 -7 -27 -9 -12 -2 -29 -10 -38 -17 -13 -11 -14
-11 -7 2 5 8 -6 4 -24 -10 -40 -30 -130 -121 -129 -129 1 -3 -7 -24 -18 -46
-19 -42 -28 -204 -12 -216 4 -3 9 -17 10 -31 1 -15 6 -24 10 -22 4 3 8 0 8 -5
0 -6 1 -14 2 -18 7 -24 108 -123 125 -123 6 0 13 -4 15 -9 2 -5 14 -11 28 -13
14 -1 28 -7 31 -12 4 -5 22 -9 40 -10 19 -1 40 -5 47 -9 6 -5 12 -4 12 0 0 5
15 9 33 10 40 1 68 6 85 16 6 5 12 5 12 0 0 -4 4 -3 8 4 4 6 14 13 21 15 40 9
151 123 143 146 -2 7 1 12 7 12 6 0 11 11 11 24 0 14 4 27 8 30 12 7 11 166 0
166 -5 0 -6 5 -3 10 10 16 -46 111 -92 158 -24 23 -43 39 -43 36 0 -4 -9 1
-20 11 -11 10 -20 14 -20 9 0 -5 -4 -3 -9 4 -4 7 -21 16 -37 18 -46 8 -171 13
-177 8z"/>
<path d="M6586 4093 c-4 -4 -28 -8 -54 -9 -125 -4 -162 -8 -162 -14 0 -11 -34
-7 -42 5 -5 7 -8 6 -8 0 0 -6 -10 -11 -22 -12 -13 0 -41 -4 -63 -7 -22 -4 -59
-8 -82 -9 -22 -1 -39 -5 -36 -9 4 -7 -34 -12 -74 -11 -7 1 -13 -4 -13 -9 0 -6
-7 -8 -15 -4 -8 3 -15 0 -15 -6 0 -6 -3 -9 -6 -5 -3 3 -26 0 -50 -8 -24 -7
-44 -10 -44 -7 0 4 -4 1 -8 -5 -4 -7 -19 -15 -32 -17 -14 -2 -26 -5 -27 -7 -2
-1 -6 -2 -10 -3 -5 -1 -18 -7 -29 -14 -12 -6 -24 -8 -28 -5 -3 3 -6 0 -6 -8 0
-11 -2 -11 -10 1 -8 13 -10 12 -10 -2 0 -11 -8 -18 -21 -18 -11 0 -27 -7 -36
-15 -8 -8 -19 -13 -24 -10 -5 4 -9 1 -9 -5 0 -6 -4 -9 -9 -6 -5 3 -14 -1 -21
-9 -7 -8 -19 -15 -26 -15 -8 0 -14 -5 -14 -11 0 -5 -4 -7 -10 -4 -5 3 -10 3
-10 -2 0 -8 -55 -43 -67 -42 -3 1 -10 -6 -15 -15 -5 -9 -13 -16 -19 -16 -9 0
-37 -24 -108 -90 -14 -13 -27 -23 -28 -22 -2 1 -4 -1 -5 -5 -6 -15 -43 -49
-50 -46 -5 2 -8 1 -8 -4 0 -4 -17 -27 -37 -50 -72 -79 -90 -102 -85 -107 3 -3
-3 -8 -12 -12 -9 -3 -16 -12 -16 -20 0 -7 -6 -17 -13 -21 -8 -4 -22 -23 -32
-40 -11 -18 -23 -33 -28 -33 -4 0 -5 -4 -2 -10 3 -5 2 -10 -3 -10 -5 0 -15
-13 -22 -30 -7 -16 -16 -27 -21 -24 -5 3 -9 2 -8 -3 2 -15 -13 -53 -22 -53 -5
0 -9 -9 -9 -20 0 -11 -7 -23 -15 -26 -8 -3 -20 -21 -27 -40 -6 -19 -15 -34
-19 -34 -4 0 -11 -10 -15 -22 -3 -13 -15 -35 -25 -49 -10 -14 -16 -29 -12 -33
3 -3 2 -6 -3 -6 -6 0 -16 -16 -24 -35 -8 -19 -17 -35 -20 -35 -4 0 -7 -7 -7
-15 0 -9 6 -14 13 -11 7 3 14 0 16 -6 2 -6 17 -11 33 -12 17 -1 36 -5 43 -9 7
-5 12 -3 12 5 0 9 3 9 10 -2 5 -8 10 -10 10 -5 0 6 5 3 10 -5 8 -12 10 -12 10
-1 0 9 4 10 13 4 6 -5 24 -9 40 -8 15 0 27 -2 27 -5 0 -3 10 -7 23 -8 85 -8
102 -12 105 -22 3 -8 8 -8 17 0 8 7 15 7 19 1 3 -5 15 -7 26 -4 12 3 20 0 20
-7 0 -10 3 -10 14 -1 8 7 17 8 20 3 3 -5 31 -10 62 -11 31 0 64 -7 72 -13 9
-7 13 -8 10 -3 -5 7 21 12 75 13 45 1 89 4 97 5 8 2 36 7 63 12 26 4 47 11 47
15 0 4 13 7 29 6 16 -1 29 2 28 8 -1 6 3 10 8 11 6 0 21 7 33 14 13 7 26 10
29 8 2 -3 13 2 23 11 29 26 45 37 60 40 8 2 19 10 23 18 4 8 17 14 27 14 11 0
20 7 20 15 0 8 4 15 8 15 20 0 202 172 202 191 0 5 4 8 9 4 5 -3 12 3 15 12 3
10 19 33 35 52 17 19 28 38 25 42 -2 4 3 10 12 13 9 4 14 9 11 12 -2 3 6 17
19 31 14 15 27 37 30 50 4 13 10 23 16 23 5 0 7 4 4 9 -4 5 -2 11 2 13 7 2 73
129 78 148 6 25 28 70 34 70 4 0 7 8 7 18 0 24 23 82 34 82 4 0 6 7 3 15 -3 8
-2 20 2 27 5 7 9 16 10 21 1 4 3 9 4 12 1 3 4 10 5 15 1 6 3 11 5 13 2 3 11
40 12 55 1 6 6 12 11 12 6 0 8 3 5 6 -4 3 -2 20 3 37 6 18 12 43 15 56 3 14 7
28 9 31 19 30 11 92 -9 73z"/>
<path d="M1850 3710 c0 -6 -4 -8 -10 -5 -6 3 -7 -1 -4 -9 3 -9 11 -16 17 -16
6 0 7 -3 4 -7 -4 -3 4 -26 18 -50 14 -23 22 -43 18 -43 -4 0 -3 -4 3 -8 14 -9
66 -92 59 -92 -3 0 6 -11 21 -25 15 -14 24 -25 20 -25 -8 0 10 -23 37 -48 9
-9 17 -22 17 -30 0 -7 5 -10 10 -7 6 3 10 -1 10 -9 0 -9 5 -16 11 -16 5 0 7
-4 4 -10 -3 -5 -1 -10 5 -10 6 0 39 -28 73 -62 72 -72 109 -103 131 -111 9 -4
16 -11 16 -17 0 -5 5 -10 12 -10 6 0 26 -11 45 -26 18 -14 33 -22 33 -19 0 3
11 -6 25 -20 27 -26 41 -33 29 -13 -4 7 8 1 26 -12 19 -14 41 -25 49 -27 9 -1
17 -7 19 -12 2 -6 12 -11 21 -11 10 0 21 -3 25 -7 4 -5 11 -8 14 -9 4 0 14 -4
22 -7 36 -15 146 -49 162 -50 10 -1 18 -5 18 -10 0 -4 5 -5 10 -2 6 4 18 1 27
-7 14 -11 16 -11 8 1 -6 11 -5 12 6 5 15 -9 31 -13 70 -18 15 -2 31 -6 37 -10
6 -3 13 0 15 6 4 10 6 10 6 1 1 -7 6 -13 12 -13 5 0 7 6 3 13 -5 8 -3 8 9 -2
12 -9 54 -14 147 -15 71 0 130 2 130 6 0 4 9 5 20 3 17 -3 19 -1 10 16 -6 11
-8 24 -5 29 3 6 1 10 -6 10 -7 0 -10 3 -7 6 12 12 -75 198 -115 245 -9 10 -17
23 -17 29 0 5 -8 14 -17 19 -10 6 -14 11 -9 11 9 0 -158 170 -168 170 -5 0
-15 8 -68 52 -11 10 -29 20 -39 23 -11 4 -16 11 -13 17 4 6 2 8 -4 4 -6 -3
-13 -2 -17 4 -4 6 -10 8 -15 5 -4 -3 -11 2 -14 11 -3 8 -10 12 -16 9 -5 -3
-10 -1 -10 4 0 6 -9 11 -20 11 -11 0 -20 5 -20 10 0 6 -8 10 -17 10 -10 0 -27
7 -37 15 -10 8 -23 12 -27 9 -5 -3 -9 0 -9 5 0 6 -9 11 -20 11 -11 0 -20 5
-20 11 0 5 -4 8 -9 4 -5 -3 -12 -1 -16 4 -3 6 -12 8 -19 5 -8 -3 -17 -1 -21 5
-3 6 -17 11 -31 11 -14 0 -23 4 -20 8 2 4 -5 9 -17 9 -22 1 -77 10 -87 13 -3
2 -8 2 -12 1 -5 0 -8 2 -8 7 0 4 -12 8 -27 8 -25 1 -68 9 -83 14 -3 1 -13 1
-24 0 -10 -1 -23 4 -27 12 -7 10 -9 10 -9 0 0 -8 -5 -10 -12 -6 -6 4 -30 8
-52 9 -23 0 -46 4 -53 8 -6 4 -13 3 -15 -2 -2 -5 -19 -4 -41 4 -20 7 -39 9
-42 5 -5 -8 -110 -4 -125 5 -5 3 -10 1 -10 -5z"/>
<path d="M4071 3587 c-6 -6 -11 -8 -11 -4 0 4 -10 2 -22 -5 -13 -7 -26 -11
-30 -10 -5 1 -8 -2 -8 -8 0 -5 -7 -10 -15 -10 -8 0 -15 -5 -15 -11 0 -5 -4 -7
-10 -4 -5 3 -10 3 -10 -2 0 -4 -14 -24 -31 -43 -34 -37 -64 -97 -60 -117 1 -7
-2 -13 -7 -13 -5 0 -8 -11 -7 -25 2 -14 -2 -25 -8 -25 -7 0 -6 -4 2 -9 12 -8
12 -12 2 -25 -8 -9 -9 -16 -3 -16 5 0 10 -11 11 -25 4 -57 6 -65 13 -65 4 0 8
-5 8 -10 0 -6 16 -34 35 -63 19 -28 35 -47 35 -42 0 6 3 6 8 0 14 -21 65 -55
73 -49 5 3 9 0 9 -6 0 -6 5 -8 10 -5 6 3 10 2 10 -3 0 -5 6 -9 13 -10 127 -10
137 -10 137 1 0 7 4 6 10 -3 7 -11 10 -11 10 -2 0 7 5 10 10 7 6 -4 17 -1 25
5 8 7 15 9 15 5 0 -4 7 -2 15 5 8 7 15 9 15 6 0 -4 7 -1 15 6 33 30 45 38 55
38 6 0 9 4 6 9 -3 5 6 17 19 27 14 10 25 24 25 31 0 7 5 13 12 13 6 0 8 3 5 7
-4 3 -2 12 4 19 6 8 9 20 5 29 -3 8 0 14 6 12 8 -1 13 24 14 81 1 45 -1 82 -5
82 -6 0 -10 16 -13 57 -1 7 -5 10 -10 7 -4 -3 -8 2 -8 11 0 9 -10 27 -22 40
-13 13 -28 30 -34 37 -13 15 -59 53 -59 50 0 -2 -18 5 -40 14 -46 20 -187 28
-204 11z"/>
<path d="M4325 2628 c-4 -9 -14 -15 -23 -14 -16 3 -47 -13 -86 -44 -26 -21
-64 -83 -72 -117 -9 -41 -11 -116 -3 -133 28 -63 36 -77 51 -91 10 -9 15 -19
11 -23 -3 -3 -1 -6 6 -6 6 0 22 -9 34 -20 12 -11 27 -18 34 -16 6 3 13 0 15
-6 6 -17 149 -17 175 -1 12 8 23 13 25 11 2 -2 10 3 18 10 8 7 24 20 35 30 32
26 67 81 60 92 -3 5 -1 10 5 10 8 0 10 9 6 25 -4 14 -2 25 3 25 10 0 7 32 -5
52 -4 7 -3 8 4 4 9 -5 9 0 2 19 -6 15 -7 31 -4 37 4 7 2 8 -4 4 -7 -4 -12 -2
-12 3 0 24 -2 27 -60 89 -19 20 -37 36 -40 36 -3 -1 -16 2 -28 7 -13 5 -28 6
-34 3 -7 -5 -8 -2 -3 6 6 10 3 12 -13 8 -12 -4 -25 -2 -28 3 -3 5 -12 5 -23
-1 -12 -6 -22 -5 -29 2 -8 8 -13 7 -17 -4z"/>
<path d="M4208 1582 c-6 -7 -13 -10 -16 -8 -5 6 -48 -45 -45 -54 1 -3 -2 -9
-7 -15 -4 -5 -6 -21 -5 -35 2 -14 4 -31 4 -38 1 -17 56 -73 64 -65 4 3 7 2 7
-3 0 -18 75 -12 112 9 20 11 35 23 33 27 -3 4 1 13 9 19 16 14 14 89 -5 118
-7 12 -23 26 -36 32 -13 6 -23 14 -23 18 0 14 -81 9 -92 -5z"/>
</g>
</svg>
