<?xml version="1.0" standalone="no"?>
<!DOCTYPE svg PUBLIC "-//W3C//DTD SVG 20010904//EN"
 "http://www.w3.org/TR/2001/REC-SVG-20010904/DTD/svg10.dtd">
<svg version="1.0" xmlns="http://www.w3.org/2000/svg"
 width="843.000000pt" height="843.000000pt" viewBox="0 0 843.000000 843.000000"
 preserveAspectRatio="xMidYMid meet">
<metadata>
Created by potrace 1.14, written by Peter Selinger 2001-2017
</metadata>
<g transform="translate(0.000000,843.000000) scale(0.100000,-0.100000)"
fill="#000000" stroke="none">
<path d="M4021 7162 c-8 -13 -10 -14 -11 -2 0 12 -2 12 -9 2 -4 -8 -10 -13
-12 -12 -10 4 -59 -21 -59 -30 0 -5 -8 -10 -17 -10 -14 0 -15 -2 -5 -9 11 -6
10 -10 -3 -15 -10 -3 -15 -12 -11 -21 3 -8 0 -14 -6 -12 -18 3 -18 -103 -1
-132 12 -18 12 -22 2 -16 -8 3 -6 0 4 -8 9 -8 17 -17 17 -21 0 -4 7 -14 15
-22 8 -9 15 -12 15 -8 0 4 9 -1 21 -11 12 -12 36 -19 60 -20 21 0 39 -4 39 -8
0 -5 6 -5 13 0 6 4 21 9 32 10 10 2 22 8 26 14 3 6 8 10 10 9 14 -5 39 16 55
46 10 19 22 34 26 34 4 0 5 9 3 20 -2 11 0 22 5 25 6 3 5 16 0 30 -7 18 -6 25
3 25 9 0 9 2 -1 8 -7 5 -15 19 -17 33 -3 13 -9 25 -15 27 -5 2 -10 10 -10 18
0 8 -7 14 -15 14 -8 0 -15 5 -15 10 0 6 -7 10 -15 10 -8 0 -15 5 -15 11 0 6
-6 9 -14 6 -8 -3 -16 -1 -18 5 -2 6 -15 13 -29 15 -18 2 -20 1 -9 -6 8 -5 18
-7 24 -4 5 3 6 1 2 -6 -6 -9 -14 -8 -31 3 -22 15 -25 14 -34 -2z"/>
<path d="M3800 6351 c0 -7 -6 -11 -15 -7 -8 3 -15 2 -15 -3 0 -5 -11 -7 -25
-6 -14 2 -25 -1 -25 -6 0 -5 -8 -9 -19 -9 -10 0 -24 -7 -31 -15 -7 -8 -16 -12
-21 -9 -5 3 -9 -2 -9 -11 0 -9 -4 -14 -8 -11 -5 3 -15 -4 -23 -15 -8 -12 -22
-30 -32 -42 -20 -23 -49 -115 -41 -128 3 -5 -1 -9 -8 -9 -9 0 -9 -3 2 -10 8
-5 10 -10 4 -10 -6 0 -9 -13 -6 -30 2 -16 9 -30 14 -30 5 0 7 -9 3 -19 -3 -10
0 -25 8 -32 13 -14 17 -21 17 -36 1 -14 67 -82 74 -76 3 3 6 1 6 -5 0 -7 9
-12 21 -12 11 0 17 -4 14 -10 -3 -5 3 -10 14 -10 11 0 23 -5 26 -11 5 -6 38
-8 93 -5 105 6 112 7 112 17 0 4 10 11 22 15 25 7 98 77 98 93 0 6 4 11 8 11
11 0 34 68 27 80 -3 5 0 10 7 10 11 0 10 2 0 9 -11 7 -10 9 3 14 13 5 14 11 5
27 -6 11 -8 20 -4 20 3 0 0 8 -7 17 -10 11 -10 14 -1 9 6 -4 12 -2 12 3 0 6
-5 11 -11 11 -5 0 -8 4 -5 9 3 5 -1 22 -9 37 -8 16 -15 35 -15 42 0 7 -7 15
-15 18 -8 4 -15 12 -15 20 0 8 -6 14 -13 14 -7 0 -18 9 -25 21 -8 12 -19 18
-28 15 -8 -3 -12 -1 -9 4 3 5 -6 12 -20 16 -13 3 -23 9 -21 13 2 3 -19 7 -47
9 -28 2 -55 8 -59 15 -6 9 -8 9 -8 -2z"/>
<path d="M2227 6096 c-8 -8 -17 -13 -20 -10 -3 3 -3 -3 0 -15 3 -12 1 -21 -6
-21 -5 0 -8 -7 -5 -15 4 -8 1 -15 -5 -15 -6 0 -10 -3 -9 -7 1 -8 -4 -24 -23
-71 -5 -13 -9 -32 -9 -43 0 -11 -4 -18 -8 -15 -4 2 -9 -4 -10 -15 -4 -42 -6
-49 -12 -49 -4 0 -7 -6 -7 -12 0 -7 -6 -33 -13 -58 -8 -25 -13 -51 -11 -57 1
-7 -2 -13 -6 -13 -5 0 -10 -12 -11 -27 -3 -30 -9 -66 -12 -70 -5 -6 -8 -24 -9
-54 -1 -21 -5 -28 -13 -23 -10 5 -10 4 -1 -6 7 -8 9 -19 4 -29 -5 -9 -8 -33
-7 -53 1 -21 -2 -38 -6 -38 -5 0 -6 -11 -4 -24 2 -14 -1 -27 -7 -30 -8 -3 -7
-5 2 -5 11 -1 11 -4 1 -16 -9 -11 -9 -15 -1 -15 7 0 9 -5 5 -12 -10 -16 -12
-58 -2 -58 4 0 4 -11 -1 -23 -5 -13 -5 -30 -1 -37 5 -8 6 -19 2 -25 -8 -13
-11 -55 -3 -50 4 2 8 -15 9 -38 2 -48 10 -122 12 -122 2 0 9 -31 14 -60 2 -11
8 -31 13 -45 6 -14 8 -31 6 -37 -3 -7 0 -13 7 -13 6 0 8 -4 5 -10 -3 -5 -2
-10 3 -10 6 0 8 -8 5 -19 -3 -10 0 -22 6 -25 6 -4 11 -16 11 -26 0 -10 5 -20
10 -22 6 -2 12 -13 13 -26 0 -12 5 -22 9 -22 4 0 8 -8 8 -17 0 -10 9 -29 20
-43 11 -14 20 -31 20 -37 0 -7 5 -13 10 -13 6 0 10 -6 10 -13 0 -8 14 -33 30
-55 17 -23 30 -44 30 -47 0 -3 8 -13 18 -24 9 -10 28 -33 42 -51 14 -19 30
-39 37 -46 7 -6 9 -14 6 -18 -4 -3 1 -6 10 -6 10 0 17 -5 17 -10 0 -17 264
-270 282 -270 5 0 6 -5 2 -12 -5 -7 -2 -9 8 -6 8 4 21 -2 28 -12 8 -11 17 -17
22 -14 4 3 8 -3 8 -12 0 -10 3 -14 6 -11 4 4 15 -3 25 -14 9 -11 20 -19 22
-17 3 2 17 -7 31 -19 14 -13 26 -20 26 -17 0 3 7 -1 15 -8 33 -29 43 -37 48
-32 2 2 10 -2 17 -11 7 -8 19 -15 26 -15 8 0 14 -4 14 -10 0 -5 7 -10 15 -10
8 0 15 -5 15 -11 0 -5 5 -7 10 -4 6 3 10 1 10 -5 0 -6 4 -9 9 -6 5 4 12 0 14
-6 4 -9 6 -9 7 2 1 8 3 23 5 33 2 9 0 17 -5 17 -4 0 -8 10 -8 23 0 12 -1 74
-2 137 -1 79 2 114 9 112 7 -1 7 5 -1 18 -10 16 -10 24 0 40 15 25 15 33 0 24
-7 -5 -8 -3 -2 7 10 17 11 20 13 60 0 16 4 28 9 25 4 -2 7 16 7 40 -1 24 2 44
6 44 4 0 10 17 14 38 4 20 12 43 18 51 10 12 9 13 -2 6 -11 -6 -12 -5 -5 6 5
8 9 17 10 22 1 4 3 9 4 12 4 7 5 15 14 58 5 20 12 37 16 37 5 0 7 11 5 25 -1
14 2 28 7 31 4 3 6 9 3 14 -3 5 -1 11 4 14 5 4 8 17 6 31 -1 14 2 25 7 25 5 0
7 4 4 9 -4 5 0 12 6 14 10 4 10 6 0 6 -8 1 -10 6 -6 13 5 7 8 34 9 60 1 26 4
50 8 54 4 4 1 14 -6 22 -9 13 -9 14 1 8 6 -4 12 -3 12 1 0 5 -6 15 -12 22 -11
12 -10 13 6 7 16 -5 17 -4 6 9 -7 8 -13 42 -14 75 0 33 -5 60 -9 60 -4 0 -3
10 4 21 8 15 8 19 0 15 -6 -4 -11 -1 -12 6 -1 7 -2 20 -3 28 -2 8 -3 25 -4 38
-1 13 -6 21 -11 18 -4 -3 -7 8 -5 24 2 17 -1 30 -6 30 -6 0 -10 9 -10 20 0 11
-4 20 -8 20 -4 0 -9 9 -10 20 -4 43 -6 50 -13 50 -4 0 -18 23 -30 50 -12 28
-27 50 -31 50 -5 0 -7 4 -3 9 3 5 -6 22 -20 37 -14 15 -25 31 -25 37 0 5 -12
22 -27 38 -40 40 -53 57 -53 68 0 5 -9 13 -20 16 -11 4 -18 10 -16 14 3 4 -25
34 -61 66 -36 33 -80 74 -98 92 -18 17 -36 29 -39 26 -3 -4 -6 0 -6 7 0 7 -3
11 -6 7 -3 -3 -17 5 -30 18 -13 13 -37 32 -54 41 -16 10 -30 22 -30 26 0 4 -5
8 -11 8 -11 0 -99 59 -110 73 -3 5 -10 9 -15 9 -23 2 -44 11 -44 18 0 9 -40
25 -52 22 -5 -1 -8 5 -8 13 0 8 -3 14 -7 14 -21 -3 -33 2 -27 13 5 7 3 8 -5 4
-7 -5 -20 -1 -30 8 -17 15 -20 15 -34 2z"/>
<path d="M5035 6023 c-5 -16 -9 -34 -11 -42 -1 -8 -6 -17 -11 -20 -5 -3 -9
-14 -10 -23 -1 -34 -3 -39 -11 -34 -5 3 -9 -1 -9 -8 0 -20 -37 -106 -46 -106
-5 0 -6 -4 -2 -9 3 -5 -2 -17 -11 -25 -8 -9 -13 -16 -9 -16 3 0 -3 -13 -15
-30 -12 -16 -18 -30 -13 -30 4 0 0 -5 -9 -11 -10 -5 -18 -14 -18 -20 0 -11
-40 -70 -55 -81 -6 -5 -6 -8 -1 -8 6 0 1 -8 -10 -19 -10 -10 -28 -31 -39 -46
-11 -16 -26 -34 -33 -42 -7 -7 -11 -13 -8 -13 3 0 -6 -12 -20 -27 -13 -14 -35
-40 -47 -56 -12 -16 -32 -40 -44 -53 -13 -12 -23 -26 -23 -30 0 -4 -11 -17
-24 -29 -14 -13 -22 -26 -19 -29 3 -3 -2 -8 -11 -12 -9 -3 -16 -12 -16 -20 0
-8 -4 -14 -10 -14 -5 0 -10 -6 -10 -13 0 -8 -9 -22 -20 -32 -11 -10 -17 -21
-15 -26 3 -4 1 -11 -5 -14 -12 -7 -73 -125 -65 -125 3 0 -2 -12 -12 -27 -10
-14 -19 -38 -21 -52 -2 -14 -9 -29 -15 -33 -9 -5 -8 -8 3 -8 11 0 12 -2 3 -8
-7 -5 -14 -20 -15 -35 -1 -15 -5 -27 -9 -27 -4 0 -6 -18 -5 -39 0 -22 -2 -37
-6 -34 -9 5 -9 6 -13 -60 -2 -27 -6 -55 -9 -63 -3 -8 -1 -14 5 -14 6 0 7 -5 3
-11 -4 -7 -6 -41 -4 -78 1 -36 2 -81 3 -98 0 -18 3 -33 6 -33 3 0 7 -17 9 -38
3 -51 7 -70 15 -78 4 -4 7 -17 7 -29 0 -11 4 -25 8 -31 5 -5 15 -29 22 -54 8
-25 18 -48 23 -51 4 -3 9 -16 10 -27 1 -12 4 -22 7 -22 3 0 12 -16 19 -35 7
-19 17 -35 22 -35 6 0 7 -4 4 -10 -3 -5 -1 -10 5 -10 6 0 8 -4 5 -10 -3 -5 -2
-10 3 -10 5 0 15 -12 23 -27 8 -16 22 -36 33 -45 10 -10 16 -18 12 -18 -4 0 5
-12 19 -27 14 -15 25 -34 25 -41 0 -7 3 -11 8 -9 4 3 13 -1 20 -9 7 -8 10 -14
7 -14 -3 0 11 -17 31 -37 20 -21 41 -37 48 -35 6 2 8 0 4 -4 -4 -4 9 -21 29
-38 20 -17 49 -43 65 -58 24 -22 33 -25 51 -17 12 5 30 12 40 15 9 4 17 10 17
15 0 5 6 9 13 9 7 0 23 9 35 20 12 11 25 20 29 20 5 0 16 8 25 18 24 25 40 37
61 45 10 4 15 11 12 17 -3 5 -3 10 2 10 11 1 76 62 90 85 6 11 17 19 25 17 7
-2 10 -1 6 3 -7 7 -4 12 37 59 14 16 25 35 25 42 0 8 7 14 16 14 8 0 12 5 9
11 -4 5 3 18 15 29 12 10 21 21 21 24 -2 18 1 25 19 46 12 13 18 30 16 37 -3
7 -2 13 3 13 8 0 45 79 42 93 0 4 3 7 8 7 5 0 7 10 3 22 -3 14 -2 19 6 14 12
-7 13 -6 17 29 1 12 7 30 13 42 6 11 8 23 5 27 -3 3 -1 6 6 6 7 0 9 5 6 10 -4
6 -1 18 7 27 11 14 11 16 -2 8 -13 -7 -13 -6 1 11 8 10 15 34 14 52 -1 17 2
32 6 32 4 0 6 11 5 25 -2 14 1 22 7 18 6 -4 8 3 4 18 -3 13 -2 31 3 39 6 9 4
20 -3 29 -9 11 -9 13 0 8 18 -11 22 16 4 37 -9 11 -11 16 -5 13 17 -10 20 14
19 140 -1 65 3 110 8 106 5 -3 1 7 -9 23 -14 21 -15 26 -4 19 13 -8 13 -7 1 8
-11 14 -11 17 0 17 12 0 12 2 0 9 -8 5 -11 16 -8 25 4 9 3 16 -1 16 -4 0 -7
12 -8 28 -1 44 -10 97 -17 109 -4 6 -1 14 5 16 9 4 8 6 -2 6 -10 1 -16 14 -17
42 -2 23 -8 48 -14 55 -6 8 -9 14 -5 14 4 0 -2 12 -11 27 -14 21 -15 25 -3 18
13 -8 13 -6 1 8 -7 9 -11 24 -7 32 3 9 2 13 -4 10 -9 -5 -15 15 -11 38 0 4 -3
7 -8 7 -5 0 -12 16 -15 35 -4 19 -12 35 -18 35 -6 0 -9 3 -5 6 3 4 0 19 -9 35
-8 16 -11 29 -7 29 5 0 0 5 -10 11 -9 6 -15 15 -11 20 3 6 -1 18 -9 27 -9 9
-19 29 -22 45 -4 15 -10 27 -14 27 -4 0 -14 16 -21 35 -8 20 -20 41 -27 47 -7
5 -10 14 -7 19 3 5 0 9 -5 9 -6 0 -11 6 -11 14 0 8 -4 16 -9 18 -5 2 -11 10
-13 18 -2 8 -6 17 -9 20 -9 7 -84 124 -83 130 0 3 -12 17 -27 33 l-27 27 -7
-27z"/>
<path d="M5793 5962 c-15 -18 -39 -46 -53 -61 -24 -27 -42 -53 -65 -98 -7 -13
-16 -19 -20 -15 -5 4 -5 1 0 -7 4 -7 3 -16 -3 -20 -6 -3 -13 -19 -16 -34 -2
-14 -8 -32 -13 -39 -4 -7 -8 -19 -10 -27 -1 -8 -4 -26 -8 -39 -4 -17 -2 -22 7
-17 7 4 4 -1 -6 -9 -11 -9 -15 -16 -10 -16 5 0 10 -9 11 -20 1 -11 -4 -20 -10
-20 -8 0 -8 -3 1 -9 8 -4 14 -12 14 -16 0 -4 -6 -12 -14 -16 -11 -7 -11 -9 1
-9 7 0 11 -6 8 -14 -3 -8 -1 -17 6 -20 9 -3 8 -5 -1 -5 -10 -1 -10 -6 -2 -21
6 -11 8 -25 4 -31 -4 -6 -1 -14 5 -18 6 -4 12 -26 14 -48 1 -23 4 -40 7 -38 3
2 10 -8 17 -21 8 -18 8 -22 0 -18 -8 5 -8 2 0 -6 10 -11 16 -10 33 5 11 10 20
15 20 11 0 -12 93 56 135 99 47 47 89 103 92 124 1 8 5 17 10 20 5 3 8 16 7
29 -1 12 2 22 7 22 4 0 8 8 8 18 0 9 2 32 4 50 2 17 0 32 -5 32 -4 0 -8 5 -8
11 0 5 4 7 10 4 7 -4 7 2 1 18 -6 14 -7 28 -4 31 4 3 2 6 -4 6 -5 0 -9 14 -8
31 1 17 -3 33 -9 35 -7 3 -13 17 -14 32 -1 15 -7 29 -12 30 -6 2 -8 8 -4 13 3
5 0 9 -6 9 -6 0 -9 4 -6 8 3 5 -5 20 -17 33 -12 13 -20 25 -17 26 3 1 -3 11
-12 22 -9 11 -14 21 -12 23 2 3 -2 5 -10 5 -8 0 -27 -16 -43 -35z"/>
<path d="M3582 5449 c-4 -5 -20 -10 -36 -13 -16 -3 -32 -10 -36 -16 -4 -7 -11
-11 -15 -10 -4 2 -21 -8 -38 -21 -18 -13 -36 -23 -40 -21 -5 1 -6 -2 -2 -8 3
-5 -1 -13 -9 -16 -9 -3 -16 -12 -16 -20 0 -8 -4 -14 -9 -14 -5 0 -13 -10 -17
-22 -4 -13 -11 -25 -15 -29 -11 -7 -31 -108 -23 -120 3 -5 1 -9 -4 -9 -5 0 -8
-10 -6 -22 1 -13 3 -23 4 -23 3 0 7 -25 12 -62 1 -13 7 -23 12 -23 5 0 6 -3 3
-7 -4 -3 -2 -12 4 -20 6 -7 8 -13 5 -13 -4 0 4 -12 18 -27 14 -15 23 -30 20
-35 -3 -4 -2 -8 3 -8 4 0 24 -14 43 -31 33 -30 107 -66 123 -61 4 1 7 -2 7 -7
0 -5 8 -8 17 -7 10 2 32 0 50 -5 22 -5 33 -3 33 5 0 6 5 4 10 -4 5 -8 10 -10
10 -3 0 6 11 10 25 8 14 -1 28 2 31 7 3 4 10 6 15 3 5 -4 9 -1 9 6 0 7 3 10 6
6 9 -8 64 21 64 34 0 6 4 7 10 4 9 -6 80 62 80 78 0 4 6 5 13 1 6 -4 9 -4 5 1
-4 4 -1 20 8 36 8 16 14 31 15 34 0 2 6 22 14 44 10 28 10 42 2 50 -8 8 -8 11
0 11 7 0 10 10 7 23 -3 12 -5 36 -6 52 -1 38 -42 128 -74 162 -13 14 -24 31
-24 36 0 6 -3 7 -7 4 -3 -4 -13 -1 -22 7 -28 24 -90 55 -124 62 -48 9 -146 11
-155 3z"/>
<path d="M1405 5428 c-4 -9 -3 -22 1 -29 4 -7 3 -9 -4 -5 -7 4 -13 -11 -18
-41 -5 -27 -7 -51 -6 -55 1 -5 -4 -8 -10 -8 -9 0 -8 -4 2 -10 8 -5 11 -10 5
-10 -5 0 -10 -25 -10 -55 0 -30 5 -55 10 -55 6 0 3 -5 -5 -10 -9 -6 -11 -10
-3 -10 7 0 10 -7 6 -17 -4 -9 -2 -14 3 -11 5 4 10 -9 11 -28 1 -19 11 -46 22
-61 12 -14 21 -29 21 -34 0 -12 77 -89 89 -89 6 0 11 -4 11 -10 0 -5 6 -10 14
-10 8 0 16 -3 18 -7 4 -11 90 -53 106 -53 6 0 12 -3 12 -7 0 -5 14 -9 32 -10
17 -1 34 -6 37 -10 3 -5 24 -9 47 -9 33 -1 40 2 39 17 -1 10 -4 22 -8 25 -4 4
-2 13 4 21 6 7 7 13 2 13 -5 0 -8 16 -8 35 1 20 -4 47 -12 62 -12 23 -11 25 5
19 15 -5 15 -4 2 6 -9 7 -15 23 -14 36 1 12 -2 22 -6 22 -4 0 -7 7 -8 15 -1 8
-3 22 -4 30 -1 8 -5 15 -10 15 -4 0 -8 8 -8 19 0 10 -7 24 -15 31 -8 7 -12 16
-9 21 3 5 0 9 -5 9 -6 0 -11 5 -11 10 0 6 -13 24 -30 40 -16 16 -30 35 -30 41
0 7 -3 10 -6 6 -3 -3 -15 3 -27 13 -12 10 -33 28 -46 39 -13 11 -32 23 -42 26
-11 4 -19 11 -19 17 0 6 -3 8 -6 5 -4 -3 -18 2 -32 13 -13 11 -28 17 -33 14
-5 -3 -9 0 -9 5 0 6 -6 11 -14 11 -8 0 -16 6 -19 13 -3 8 -7 7 -12 -5z"/>
<path d="M6418 5430 c-2 -6 -16 -13 -33 -16 -16 -3 -34 -9 -41 -15 -6 -5 -14
-6 -17 -2 -4 3 -7 1 -7 -6 0 -7 -4 -9 -10 -6 -5 3 -10 1 -10 -5 0 -6 -4 -8
-10 -5 -5 3 -10 1 -10 -5 0 -6 -4 -8 -10 -5 -5 3 -10 1 -10 -5 0 -6 -4 -9 -9
-6 -5 4 -11 3 -13 -1 -4 -10 -57 -42 -80 -50 -10 -3 -18 -12 -18 -20 0 -8 -4
-12 -9 -9 -8 5 -89 -58 -104 -81 -5 -8 -12 -11 -16 -9 -4 3 -14 -6 -21 -19 -7
-13 -17 -22 -22 -19 -4 3 -8 -2 -8 -11 0 -9 -4 -13 -10 -10 -5 3 -10 0 -10 -8
0 -8 -7 -18 -16 -21 -9 -4 -14 -9 -11 -12 5 -5 -2 -14 -48 -65 -8 -9 -15 -21
-15 -27 0 -6 -8 -16 -17 -21 -10 -6 -14 -11 -10 -11 4 0 -6 -20 -22 -44 -17
-25 -32 -54 -34 -65 -2 -12 -9 -27 -15 -33 -7 -7 -12 -20 -12 -31 0 -10 -4
-15 -10 -12 -6 4 -7 -1 -3 -10 3 -10 2 -20 -3 -24 -10 -6 -44 -124 -46 -158
-1 -7 -4 -13 -7 -13 -3 0 -5 -17 -5 -37 1 -21 -1 -42 -4 -48 -3 -5 -7 -30 -9
-55 -2 -42 -1 -46 22 -48 14 -1 25 4 25 11 0 9 3 8 9 -2 6 -9 11 -10 15 -2 4
6 20 11 36 11 16 0 32 5 36 11 4 8 9 7 15 -2 5 -8 9 -9 9 -4 0 6 12 12 27 13
15 1 32 7 37 12 6 6 20 10 33 10 12 0 27 8 32 18 7 11 10 13 11 3 0 -10 3 -11
13 -2 8 6 17 8 20 4 4 -3 7 -1 7 5 0 7 3 11 8 10 4 -1 17 3 28 10 12 6 24 8
28 5 3 -3 6 -2 6 4 0 5 20 18 45 29 25 10 45 22 45 27 0 4 5 5 10 2 6 -3 10
-2 10 3 0 6 20 23 45 39 25 15 48 36 51 46 3 9 12 17 19 17 17 0 37 34 27 45
-4 5 -2 5 4 2 12 -7 74 79 74 101 0 7 5 12 11 12 6 0 8 9 4 21 -5 15 -4 19 4
15 10 -7 16 6 12 28 -1 4 4 14 10 22 8 10 8 14 1 14 -6 0 -9 7 -6 15 4 8 9 13
13 11 3 -2 6 26 6 62 -1 37 2 74 6 82 4 8 3 24 -1 35 -4 11 -3 28 2 38 5 9 5
17 1 17 -4 0 -8 30 -8 67 0 37 -5 77 -12 90 -6 13 -8 25 -3 28 5 3 6 15 1 28
-5 12 -9 26 -9 30 -1 14 -10 19 -14 7z"/>
<path d="M6865 4818 c-3 -7 -26 -14 -51 -15 -26 -2 -52 -6 -58 -10 -6 -5 -20
-8 -31 -8 -11 0 -23 -4 -27 -10 -4 -5 -11 -10 -15 -11 -28 -4 -72 -28 -66 -37
3 -5 1 -7 -4 -4 -6 4 -23 -5 -39 -18 -16 -14 -37 -28 -46 -31 -9 -3 -20 -14
-23 -25 -4 -10 -11 -17 -16 -14 -5 4 -9 -1 -9 -9 0 -9 -4 -16 -9 -16 -14 0
-82 -110 -75 -122 4 -6 3 -8 -3 -5 -6 4 -18 -9 -26 -31 l-15 -37 41 -19 c23
-10 50 -23 60 -28 10 -5 22 -6 27 -3 5 3 11 1 15 -4 3 -6 12 -8 20 -4 8 3 15
1 15 -4 0 -5 49 -10 110 -10 62 0 110 4 110 10 0 5 7 7 15 3 8 -3 15 -1 15 5
0 6 5 7 10 4 6 -4 17 -1 25 5 8 7 15 9 15 5 0 -4 11 0 25 9 14 9 25 13 25 9 0
-5 4 -3 8 2 14 20 80 64 86 58 3 -4 6 -1 6 6 0 6 11 22 25 35 14 13 25 27 25
32 0 5 11 22 25 37 14 15 23 27 20 27 -4 0 4 14 16 32 13 17 18 29 12 25 -8
-5 -8 0 0 18 7 14 15 25 19 25 4 0 5 9 3 20 -2 11 0 20 6 20 5 0 9 5 9 11 0 5
-6 7 -12 3 -9 -5 -8 -2 1 9 15 18 12 27 -11 31 -7 1 -19 5 -25 9 -7 5 -17 6
-22 2 -5 -3 -12 -1 -16 4 -3 6 -19 8 -35 6 -18 -2 -30 1 -30 8 0 7 -4 6 -10
-3 -5 -8 -10 -10 -10 -4 0 5 -18 11 -40 11 -22 0 -37 -3 -34 -8 3 -5 -2 -6
-10 -3 -9 3 -13 10 -10 15 3 5 3 9 -1 9 -3 0 -8 -6 -10 -12z"/>
<path d="M1417 4584 c-3 -5 -42 -9 -86 -9 -45 0 -81 -3 -81 -6 0 -3 -12 -7
-27 -8 -86 -6 -87 -6 -87 -31 0 -14 6 -24 12 -23 6 2 9 -4 5 -13 -5 -14 1 -33
28 -86 5 -10 9 -25 9 -33 0 -8 5 -15 10 -15 6 0 10 -8 10 -19 0 -10 7 -24 15
-31 8 -7 12 -16 9 -21 -3 -5 0 -9 5 -9 6 0 11 -7 11 -15 0 -8 5 -15 10 -15 6
0 10 -7 10 -15 0 -8 5 -15 11 -15 5 0 7 -4 4 -10 -3 -5 -2 -10 4 -10 5 0 13
-9 16 -20 4 -11 11 -18 16 -15 5 4 9 1 9 -5 0 -13 106 -120 120 -120 5 0 10
-4 10 -10 0 -5 7 -10 15 -10 8 0 15 -5 15 -11 0 -5 5 -7 10 -4 6 3 13 -1 16
-10 4 -9 12 -14 19 -11 7 2 22 -2 34 -10 12 -8 26 -12 31 -9 6 3 10 1 10 -5 0
-6 5 -8 10 -5 6 3 10 2 10 -3 0 -5 17 -9 37 -10 20 -1 40 -7 45 -14 4 -8 8 -8
8 -2 0 6 7 11 15 11 8 0 15 -3 15 -7 0 -3 9 -6 20 -7 11 -1 20 3 20 9 0 6 5 7
13 2 12 -10 65 -9 127 1 19 3 51 6 72 8 20 1 34 5 32 8 -2 4 6 7 19 7 30 2 50
6 65 15 6 5 17 5 22 2 6 -3 10 -2 10 3 0 6 7 13 16 16 9 3 12 2 8 -5 -4 -7 0
-7 12 -1 33 18 99 45 99 42 0 -2 10 4 22 15 22 18 22 19 3 35 -11 9 -17 19
-14 22 3 3 -6 15 -20 26 -14 10 -23 22 -19 25 3 4 -2 9 -11 13 -9 3 -16 13
-16 21 0 8 -4 11 -10 8 -5 -3 -10 -1 -10 5 0 5 -13 24 -30 42 -16 17 -30 35
-30 40 0 5 -4 7 -9 3 -5 -3 -12 4 -16 15 -3 11 -13 20 -21 20 -8 0 -14 7 -14
16 0 8 -4 13 -8 10 -5 -3 -18 5 -29 17 -26 29 -73 68 -73 61 0 -3 -7 1 -15 8
-33 29 -45 38 -45 33 0 -4 -7 1 -16 9 -8 9 -20 14 -25 11 -5 -4 -9 -2 -9 3 0
12 -158 67 -197 68 -18 0 -36 4 -40 9 -5 4 -2 5 6 0 8 -5 12 -4 8 1 -3 5 -39
9 -81 9 -42 0 -76 4 -76 8 0 5 -6 5 -12 0 -17 -10 -42 -10 -49 1 -4 4 -9 4
-12 0z"/>
<path d="M3684 4505 c2 -7 -8 -10 -25 -9 -16 1 -29 -1 -29 -5 0 -3 -15 -13
-32 -20 -40 -18 -101 -80 -120 -121 -7 -16 -16 -30 -19 -30 -4 0 -10 -15 -14
-32 -4 -18 -9 -40 -12 -48 -2 -8 -3 -44 -3 -80 1 -36 1 -73 1 -82 0 -10 4 -18
9 -18 4 0 11 -11 14 -25 8 -30 52 -97 72 -108 8 -5 12 -12 9 -18 -4 -5 -1 -9
5 -9 7 0 24 -9 40 -20 15 -11 31 -16 35 -12 5 4 6 0 3 -8 -4 -11 3 -16 30 -18
20 -1 38 -6 42 -10 8 -12 190 -11 183 2 -4 5 1 7 11 3 10 -4 15 -3 11 3 -3 6
3 10 14 10 11 0 23 5 26 10 4 6 10 8 14 6 4 -3 20 8 35 25 15 16 33 26 38 22
7 -3 8 -1 4 5 -4 7 -4 12 1 12 10 0 56 67 51 75 -1 4 4 10 13 15 11 7 15 18
11 36 -3 19 -1 25 7 20 26 -16 18 166 -11 231 -24 53 -86 133 -104 133 -4 0
-15 10 -25 22 -11 11 -19 17 -19 13 0 -4 -9 0 -20 10 -10 9 -26 15 -35 12 -8
-4 -15 -2 -15 4 0 6 -4 7 -10 4 -5 -3 -10 -2 -10 3 0 4 -41 8 -90 8 -59 -1
-89 -5 -86 -11z"/>
<path d="M6483 4082 c-6 -4 -37 -7 -67 -7 -31 1 -56 -4 -56 -9 0 -6 -5 -5 -12
2 -8 8 -17 8 -30 1 -10 -5 -23 -7 -28 -4 -6 3 -10 3 -10 -2 0 -4 -22 -8 -49
-8 -27 1 -47 -3 -45 -7 4 -7 -53 -13 -78 -9 -5 0 -8 -5 -8 -11 0 -9 -4 -8 -10
2 -5 8 -10 10 -10 5 0 -6 -16 -12 -37 -13 -20 -2 -41 -6 -47 -10 -6 -3 -20 -8
-31 -10 -37 -7 -40 -8 -52 -15 -7 -5 -13 -5 -13 -1 0 3 -12 -1 -26 -11 -15 -9
-23 -12 -19 -5 5 8 2 9 -11 2 -45 -24 -89 -40 -96 -36 -4 3 -8 0 -8 -5 0 -6
-9 -11 -20 -11 -11 0 -20 -5 -20 -11 0 -5 -4 -8 -9 -5 -5 4 -12 0 -14 -6 -4
-10 -6 -9 -6 1 -1 10 -7 7 -20 -8 -14 -16 -21 -18 -24 -9 -4 10 -6 10 -6 1 -1
-7 -8 -13 -16 -13 -7 0 -19 -8 -24 -17 -6 -10 -11 -14 -11 -10 0 9 -70 -30
-80 -44 -3 -4 -12 -9 -20 -11 -8 -2 -22 -10 -30 -18 -8 -8 -31 -26 -50 -39
-19 -14 -39 -30 -43 -38 -4 -7 -13 -13 -19 -13 -13 0 -148 -137 -148 -151 0
-6 -4 -7 -10 -4 -5 3 -10 3 -10 -2 0 -4 -13 -22 -28 -40 -44 -52 -62 -77 -62
-86 0 -4 -4 -5 -10 -2 -5 3 -10 -1 -10 -10 0 -8 -9 -23 -20 -32 -11 -10 -20
-21 -20 -25 0 -10 -59 -96 -71 -103 -5 -4 -7 -11 -4 -16 4 -5 1 -9 -4 -9 -6 0
-11 -7 -11 -15 0 -8 -4 -15 -9 -15 -5 0 -20 -21 -33 -47 -13 -27 -29 -53 -36
-58 -7 -6 -14 -20 -15 -33 0 -12 -5 -22 -9 -22 -4 0 -15 -17 -25 -37 -9 -21
-22 -41 -27 -45 -7 -5 -7 -8 -1 -8 7 0 7 -3 0 -8 -9 -7 -55 -96 -55 -108 0 -3
5 -2 11 2 6 3 15 0 20 -7 6 -10 9 -10 9 -2 0 9 7 10 24 3 13 -4 35 -7 49 -6
15 2 24 -1 21 -5 -3 -5 5 -10 18 -10 55 -3 75 -6 108 -14 19 -5 39 -8 43 -7 4
1 17 -3 29 -9 16 -9 19 -8 13 2 -6 8 -4 10 6 3 17 -10 30 -13 86 -16 24 -2 43
-5 43 -9 0 -5 53 -11 113 -12 15 0 27 -5 27 -11 0 -7 3 -8 8 -1 9 13 55 14 64
0 5 -6 8 -6 8 0 0 6 26 11 58 12 31 0 73 4 92 8 19 4 45 8 58 9 12 0 22 5 22
9 0 5 5 5 10 2 6 -3 10 -2 10 4 0 6 7 8 15 5 8 -4 15 -1 15 6 0 6 4 9 9 5 5
-3 12 -1 16 4 3 6 13 7 22 4 11 -4 14 -3 9 5 -5 8 0 12 14 12 11 0 23 6 26 13
3 8 10 14 17 14 7 0 37 16 68 36 31 20 60 33 64 29 5 -4 5 -2 2 4 -3 6 3 18
14 27 10 9 19 13 19 9 0 -4 5 1 11 11 5 9 17 17 26 17 9 0 14 3 11 6 -5 5 37
54 47 54 6 0 71 68 91 97 11 14 24 30 29 37 37 43 75 96 75 105 0 6 4 11 10
11 5 0 12 11 16 25 3 14 11 25 17 25 6 0 7 3 4 7 -4 3 0 11 9 17 8 6 16 18 18
26 6 32 19 50 30 43 6 -3 8 -3 4 2 -4 4 4 29 17 55 13 26 21 50 18 54 -4 3 -1
6 5 6 7 0 12 4 12 9 0 5 5 22 12 38 6 15 11 31 10 36 -1 4 2 7 6 7 5 0 14 22
22 50 7 27 16 47 19 46 3 -2 7 8 8 22 0 15 6 28 11 30 5 1 8 12 5 22 -3 11 -1
20 4 20 5 0 10 6 11 13 0 14 6 37 21 84 5 17 7 34 3 37 -3 3 0 6 6 6 7 0 12
15 12 35 0 26 4 35 18 36 9 0 12 3 5 5 -8 4 -9 14 -3 35 5 16 8 29 7 30 -12 5
-67 2 -67 -4 0 -4 -8 -3 -18 2 -10 5 -23 6 -29 3z"/>
<path d="M1685 3681 c2 -9 4 -18 5 -21 1 -3 2 -8 1 -12 0 -5 3 -8 7 -8 5 0 14
-16 22 -35 8 -19 17 -35 22 -35 4 0 8 -7 8 -15 0 -8 8 -24 18 -35 9 -11 16
-23 14 -26 -1 -2 3 -11 10 -19 28 -31 38 -44 38 -51 0 -4 9 -15 21 -25 11 -9
21 -21 21 -26 1 -20 11 -33 26 -33 8 0 12 -3 9 -7 -4 -3 5 -16 18 -29 14 -13
25 -25 25 -28 0 -7 89 -96 96 -96 3 0 19 -13 34 -30 15 -16 32 -30 38 -30 5 0
13 -7 16 -16 3 -8 10 -13 14 -10 5 3 14 -4 22 -14 8 -10 17 -17 22 -14 4 3 11
-2 14 -10 3 -9 13 -16 21 -16 8 0 11 -5 7 -12 -4 -6 -3 -8 4 -4 6 3 18 -1 26
-10 9 -8 16 -13 16 -9 0 4 12 -3 26 -14 15 -11 30 -18 35 -15 5 3 9 1 9 -5 0
-9 32 -24 53 -26 4 0 12 -7 17 -15 5 -8 10 -12 10 -8 0 4 21 -2 48 -13 26 -12
54 -22 62 -24 8 -2 38 -13 67 -23 28 -11 54 -17 57 -14 3 2 12 -1 21 -8 8 -7
15 -9 15 -6 0 4 8 2 18 -3 13 -7 22 -7 30 1 8 8 13 8 17 -3 4 -10 19 -15 45
-14 22 1 40 -2 40 -5 0 -8 19 -9 192 -13 70 -1 137 1 148 5 19 7 23 29 9 53
-8 14 -23 68 -21 78 1 4 -3 7 -9 7 -6 0 -9 7 -5 15 3 8 1 15 -4 15 -5 0 -12
11 -16 25 -3 14 -10 25 -15 25 -5 0 -6 6 -3 14 3 7 -2 16 -11 20 -9 3 -14 10
-11 15 3 5 -1 12 -10 15 -8 3 -12 10 -9 16 3 5 1 10 -4 10 -6 0 -11 5 -11 11
0 7 -10 20 -22 30 -11 11 -18 19 -15 19 4 0 -9 17 -28 38 -19 20 -43 46 -53
57 -37 40 -97 91 -115 98 -10 4 -16 11 -13 16 3 5 -5 12 -19 15 -14 4 -25 11
-25 16 0 6 -6 10 -14 10 -8 0 -16 7 -20 15 -3 9 -12 12 -22 8 -10 -4 -15 -2
-11 3 3 5 -9 16 -26 24 -18 7 -34 16 -37 19 -10 12 -50 31 -65 31 -8 0 -15 5
-15 10 0 6 -8 10 -17 10 -10 0 -26 7 -36 15 -11 7 -26 11 -35 8 -11 -5 -13 -3
-7 7 6 10 4 12 -8 7 -10 -3 -17 -3 -17 2 0 4 -6 8 -12 9 -42 5 -77 15 -74 21
3 4 -11 8 -31 8 -20 1 -38 5 -42 11 -3 5 -18 8 -33 8 -16 -1 -28 2 -28 6 0 4
-7 4 -17 1 -9 -4 -14 -2 -11 3 3 5 -16 10 -44 11 -27 1 -57 8 -66 15 -12 10
-14 10 -8 1 4 -7 2 -13 -3 -13 -6 0 -11 3 -11 8 0 4 -21 7 -46 7 -25 -1 -48 3
-50 7 -3 4 -10 8 -15 8 -6 0 -7 -5 -3 -11 4 -8 1 -8 -12 -1 -11 5 -29 8 -42 6
-14 -3 -21 0 -17 6 3 5 2 10 -4 10 -5 0 -13 -5 -16 -10 -5 -8 -11 -7 -21 1
-11 9 -14 9 -14 0 0 -7 -5 -9 -12 -5 -6 4 -39 8 -74 9 -51 1 -61 -2 -59 -14z"/>
<path d="M3978 3570 c-36 -11 -108 -52 -108 -62 0 -4 -6 -8 -14 -8 -8 0 -27
-20 -42 -44 -16 -25 -32 -42 -37 -39 -5 3 -6 -4 -2 -16 3 -11 2 -21 -3 -21 -6
0 -13 -7 -16 -16 -4 -9 -2 -13 5 -8 8 4 8 1 1 -12 -16 -30 -24 -97 -11 -88 8
4 8 1 1 -13 -6 -11 -7 -25 -2 -33 4 -7 7 -22 5 -32 -2 -10 1 -18 7 -18 5 0 7
-7 4 -16 -3 -9 -2 -12 5 -9 6 4 9 1 7 -6 -8 -43 99 -146 182 -174 3 -1 13 -5
23 -9 9 -5 26 -6 37 -3 11 3 23 1 26 -4 3 -5 9 -7 13 -5 4 3 29 6 57 7 60 3
76 8 67 22 -4 6 0 8 10 4 9 -3 23 0 31 8 8 8 18 15 23 15 14 1 53 37 53 50 0
6 4 9 9 5 5 -3 12 3 15 13 4 10 16 28 27 41 11 12 21 37 22 55 1 19 5 32 10
29 10 -6 12 93 3 137 -14 62 -20 80 -28 80 -5 0 -6 5 -3 10 3 6 2 10 -4 10 -6
0 -13 11 -17 25 -3 13 -14 27 -24 30 -11 3 -22 15 -25 26 -4 10 -11 17 -16 14
-5 -4 -12 1 -15 9 -3 9 -15 16 -25 16 -10 0 -19 5 -19 12 0 6 -3 9 -6 5 -4 -3
-18 0 -33 7 -29 15 -151 18 -193 6z"/>
<path d="M4237 2578 c2 -5 1 -8 -4 -9 -67 -6 -138 -70 -171 -154 -17 -42 -21
-97 -8 -114 9 -12 8 -13 -3 -6 -11 6 -12 5 -5 -6 4 -8 9 -18 10 -24 1 -5 8
-23 15 -40 7 -16 11 -34 10 -38 -1 -5 3 -6 8 -3 5 4 12 -2 15 -11 5 -16 70
-67 85 -68 3 -1 15 -6 26 -12 24 -13 153 -14 161 -1 3 4 10 6 15 3 5 -4 9 -1
9 5 0 6 5 8 10 5 6 -3 10 -1 10 6 0 7 3 9 7 6 3 -4 19 7 35 23 15 17 33 30 39
30 5 0 8 4 4 9 -3 5 2 17 11 25 8 9 12 16 7 16 -4 0 -1 5 8 10 10 6 15 21 14
45 -1 19 2 35 7 35 5 0 4 10 -3 21 -8 15 -8 19 0 15 6 -4 11 -2 11 3 0 6 -4
11 -9 11 -5 0 -8 13 -7 29 1 17 -1 28 -4 26 -4 -2 -12 12 -19 31 -7 18 -17 34
-22 34 -5 0 -9 7 -9 15 0 8 -4 15 -8 15 -5 0 -22 11 -38 25 -26 22 -38 27 -60
24 -4 0 -10 4 -13 10 -4 6 -37 12 -73 13 -36 2 -64 0 -61 -4z"/>
<path d="M4128 1506 c-16 -8 -28 -12 -28 -8 0 4 -9 -6 -19 -22 -11 -17 -17
-34 -14 -39 3 -6 1 -7 -5 -3 -6 3 -13 2 -17 -4 -3 -5 0 -10 7 -10 8 0 9 -3 3
-8 -12 -8 -12 -14 -1 -59 4 -18 12 -33 17 -33 6 0 7 -4 4 -10 -3 -5 1 -10 9
-10 9 0 16 -5 16 -11 0 -6 7 -9 15 -5 9 3 15 0 15 -9 0 -10 13 -13 45 -12 25
0 45 5 45 9 0 4 6 8 13 9 22 1 59 59 62 99 2 39 -20 100 -37 100 -5 0 -6 5 -3
10 4 6 3 10 -2 8 -4 -1 -26 4 -48 10 -49 15 -44 15 -77 -2z"/>
</g>
</svg>
